<svg width="361" height="576" viewBox="0 0 361 576" fill="none" xmlns="http://www.w3.org/2000/svg">
<rect x="0.50293" y="0.5" width="359" height="575" stroke="#969696" stroke-dasharray="5 5"/>
<line x1="36.5029" y1="2.18557e-08" x2="36.5029" y2="576" stroke="#969696" stroke-dasharray="5 5"/>
<line y1="35.5" x2="360.006" y2="35.5" stroke="#969696" stroke-dasharray="5 5"/>
<line y1="35.5" x2="360.006" y2="35.5" stroke="#969696" stroke-dasharray="5 5"/>
<line x1="0.00292969" y1="251.5" x2="360.008" y2="251.5" stroke="#969696" stroke-dasharray="5 5"/>
<line x1="0.00292969" y1="467.5" x2="360.008" y2="467.5" stroke="#969696" stroke-dasharray="5 5"/>
<line x1="0.00292969" y1="107.5" x2="360.008" y2="107.5" stroke="#969696" stroke-dasharray="5 5"/>
<line x1="0.00585938" y1="323.5" x2="360.011" y2="323.5" stroke="#969696" stroke-dasharray="5 5"/>
<line x1="0.00585938" y1="539.5" x2="360.011" y2="539.5" stroke="#969696" stroke-dasharray="5 5"/>
<line x1="0.00292969" y1="179.5" x2="360.008" y2="179.5" stroke="#969696" stroke-dasharray="5 5"/>
<line x1="0.00585938" y1="395.5" x2="360.011" y2="395.5" stroke="#969696" stroke-dasharray="5 5"/>
<line x1="0.00292969" y1="71.5" x2="360.008" y2="71.5" stroke="#969696" stroke-dasharray="5 5"/>
<line x1="0.00585938" y1="287.5" x2="360.011" y2="287.5" stroke="#969696" stroke-dasharray="5 5"/>
<line x1="0.00585938" y1="503.5" x2="360.011" y2="503.5" stroke="#969696" stroke-dasharray="5 5"/>
<line x1="0.00585938" y1="143.5" x2="360.011" y2="143.5" stroke="#969696" stroke-dasharray="5 5"/>
<line x1="0.0078125" y1="359.5" x2="360.013" y2="359.5" stroke="#969696" stroke-dasharray="5 5"/>
<line x1="0.00585938" y1="215.5" x2="360.011" y2="215.5" stroke="#969696" stroke-dasharray="5 5"/>
<line x1="0.0078125" y1="431.5" x2="360.013" y2="431.5" stroke="#969696" stroke-dasharray="5 5"/>
<line x1="180.503" y1="2.18557e-08" x2="180.503" y2="576" stroke="#969696" stroke-dasharray="5 5"/>
<line x1="72.5029" y1="2.18557e-08" x2="72.5029" y2="576" stroke="#969696" stroke-dasharray="5 5"/>
<line x1="216.503" y1="2.18557e-08" x2="216.503" y2="576" stroke="#969696" stroke-dasharray="5 5"/>
<line x1="108.503" y1="2.18557e-08" x2="108.503" y2="576" stroke="#969696" stroke-dasharray="5 5"/>
<line x1="252.503" y1="2.18557e-08" x2="252.503" y2="576" stroke="#969696" stroke-dasharray="5 5"/>
<line x1="287.5" y1="2.18557e-08" x2="287.5" y2="576" stroke="#969696" stroke-dasharray="5 5"/>
<line x1="144.503" y1="2.18557e-08" x2="144.503" y2="576" stroke="#969696" stroke-dasharray="5 5"/>
<line x1="322.5" y1="2.18557e-08" x2="322.5" y2="576" stroke="#969696" stroke-dasharray="5 5"/>
<rect x="0.50293" y="539.5" width="36" height="36" fill="#D9D9D9" stroke="black"/>
<rect x="36.5029" y="539.5" width="36" height="36" fill="#D9D9D9" stroke="black"/>
<rect x="107.503" y="539.5" width="36" height="36" fill="#D9D9D9" stroke="black"/>
<rect x="143.503" y="539.5" width="36" height="36" fill="#D9D9D9" stroke="black"/>
<rect x="251.5" y="539.5" width="36" height="36" fill="#D9D9D9" stroke="black"/>
<rect x="251.5" y="503.5" width="36" height="36" fill="#D9D9D9" stroke="black"/>
<rect x="179.503" y="539.5" width="36" height="36" fill="#D9D9D9" stroke="black"/>
<rect x="287.5" y="539.5" width="36" height="36" fill="#D9D9D9" stroke="black"/>
<rect x="287.5" y="503.5" width="36" height="36" fill="#D9D9D9" stroke="black"/>
<rect x="215.503" y="539.5" width="36" height="36" fill="#D9D9D9" stroke="black"/>
<rect x="323.5" y="539.5" width="36" height="36" fill="#D9D9D9" stroke="black"/>
<rect x="107.503" y="503.5" width="36" height="36" fill="#D9D9D9" stroke="black"/>
<rect x="143.503" y="503.5" width="36" height="36" fill="#D9D9D9" stroke="black"/>
<rect x="179.503" y="503.5" width="36" height="36" fill="#D9D9D9" stroke="black"/>
<rect x="215.503" y="503.5" width="36" height="36" fill="#D9D9D9" stroke="black"/>
<rect x="0.5" y="503.5" width="36" height="36" fill="#D9D9D9" stroke="black"/>
<rect x="0.50293" y="467.5" width="36" height="36" fill="#D9D9D9" stroke="black"/>
<rect x="36.5" y="503.5" width="36" height="36" fill="#D9D9D9" stroke="black"/>
<rect x="72.5" y="324.5" width="36" height="36" transform="rotate(90 72.5 324.5)" fill="#D9D9D9" stroke="black"/>
<rect x="108.5" y="324.5" width="36" height="36" transform="rotate(90 108.5 324.5)" fill="#D9D9D9" stroke="black"/>
<rect x="108.5" y="360.5" width="36" height="36" transform="rotate(90 108.5 360.5)" fill="#D9D9D9" stroke="black"/>
<path d="M108.5 396.5V432.5H72.5V396.5H108.5Z" fill="#D9D9D9" stroke="black"/>
<path d="M23.2715 519.278V514.186H15.6357V519.278H23.2715ZM10.543 532V511.643H25.8145V514.186H28.3574V519.278H25.8145V521.821H15.6357V532H10.543Z" fill="black"/>
<path d="M58.2715 519.278V514.186H50.6357V519.278H58.2715ZM45.543 532V511.643H60.8145V514.186H63.3574V519.278H60.8145V521.821H63.3574V532H58.2715V521.821H50.6357V532H45.543Z" fill="black"/>
<path d="M94.2715 386.457V371.186H86.6357V386.457H94.2715ZM84.0859 389V386.457H81.543V371.186H84.0859V368.643H96.8145V371.186H99.3574V386.457H96.8145V389H84.0859Z" fill="black"/>
<path d="M130.271 529.457V521.821H122.636V529.457H130.271ZM130.271 519.278V514.186H122.636V519.278H130.271ZM117.543 532V511.643H132.814V514.186H135.357V519.278H132.814V521.821H135.357V529.457H132.814V532H117.543Z" fill="black"/>
<path d="M153.543 532V511.643H158.636V529.457H168.814V532H153.543Z" fill="black"/>
<path d="M190.543 532V511.643H208.357V514.186H195.636V519.278H203.271V521.821H195.636V529.457H208.357V532H190.543Z" fill="black"/>
<path d="M225.543 532V511.643H228.086V514.186H230.636V516.729H233.179V519.278H235.722V516.729H238.271V514.186H240.814V511.643H243.357V532H238.271V521.821H235.722V524.364H233.179V521.821H230.636V532H225.543Z" fill="black"/>
<path d="M263.086 532V529.457H260.543V526.914H265.636V529.457H273.271V521.821H263.086V519.278H260.543V514.186H263.086V511.643H275.814V514.186H278.357V516.729H273.271V514.186H265.636V519.278H275.814V521.821H278.357V529.457H275.814V532H263.086Z" fill="black"/>
<path d="M303.543 532V526.914H308.636V532H303.543ZM303.543 524.364V511.643H308.636V524.364H303.543Z" fill="black"/>
</svg>
