<svg width="280" height="413" viewBox="0 0 280 413" fill="none" xmlns="http://www.w3.org/2000/svg">
<rect x="138.5" y="93.5" width="36" height="36" transform="rotate(90 138.5 93.5)" fill="black" stroke="white"/>
<rect x="242.5" y="0.5" width="36" height="36" transform="rotate(90 242.5 0.5)" fill="black" stroke="white"/>
<rect x="278.5" y="0.5" width="36" height="36" transform="rotate(90 278.5 0.5)" fill="black" stroke="white"/>
<rect x="279.5" y="37.5" width="36" height="36" transform="rotate(90 279.5 37.5)" fill="black" stroke="white"/>
<rect x="138.5" y="130.5" width="36" height="36" transform="rotate(90 138.5 130.5)" fill="black" stroke="white"/>
<rect x="225.5" y="257.5" width="36" height="36" transform="rotate(90 225.5 257.5)" fill="black" stroke="white"/>
<rect x="225.5" y="293.5" width="36" height="36" transform="rotate(90 225.5 293.5)" fill="black" stroke="white"/>
<rect x="225.5" y="330.5" width="36" height="36" transform="rotate(90 225.5 330.5)" fill="black" stroke="white"/>
<rect x="188.5" y="294.5" width="36" height="36" transform="rotate(90 188.5 294.5)" fill="black" stroke="white"/>
<rect x="138.5" y="167.5" width="36" height="36" transform="rotate(90 138.5 167.5)" fill="black" stroke="white"/>
<rect x="36.5" y="376.5" width="36" height="36" transform="rotate(90 36.5 376.5)" fill="black" stroke="white"/>
<rect x="73.5" y="376.5" width="36" height="36" transform="rotate(90 73.5 376.5)" fill="black" stroke="white"/>
<rect x="73.5" y="339.5" width="36" height="36" transform="rotate(90 73.5 339.5)" fill="black" stroke="white"/>
<rect x="36.5" y="339.5" width="36" height="36" transform="rotate(90 36.5 339.5)" fill="black" stroke="white"/>
</svg>
